<svg xmlns="http://www.w3.org/2000/svg" viewBox="0 0 256 256" role="img" aria-label="TomSec">
  <defs>
    <linearGradient id="g" x1="0" y1="0" x2="1" y2="1">
      <stop offset="0" stop-color="#7567F6"/>
      <stop offset="1" stop-color="#5A4EE0"/>
    </linearGradient>
  </defs>
  <rect width="256" height="256" rx="56" fill="#111827"/>
  <path d="M128 36l68 24v54c0 48.7-30.6 83.7-68 106-37.4-22.3-68-57.3-68-106V60l68-24z" fill="url(#g)"/>
  <path d="M128 88c-16 0-29 13-29 29v12h58v-12c0-16-13-29-29-29zm-16 41v-12c0-8.8 7.2-16 16-16s16 7.2 16 16v12h-32z" fill="#FFFFFF"/>
  <rect x="92" y="129" width="72" height="52" rx="10" fill="#FFFFFF"/>
  <circle cx="128" cy="155" r="8" fill="#111827"/>
</svg>
